<?xml version="1.0" encoding="UTF-8"?>
<svg version="1.1" xmlns="http://www.w3.org/2000/svg" width="64" height="64">
<path d="M0 0 C6.52638491 3.01217765 11.94571317 10.04866477 14.52734375 16.7578125 C16.13434637 24.38111418 16.51370828 33.51266706 12.34765625 40.3515625 C9.4613226 43.88209235 6.0924154 46.9537923 2 49 C-9.95100391 49.93462979 -9.95100391 49.93462979 -15.5625 47.375 C-21.98514962 41.1170337 -25.2674423 36.15259883 -25.5 26.9375 C-25.51786561 18.38827823 -22.96163888 11.28152277 -17.11328125 4.9609375 C-11.46451221 -0.03650597 -7.34311323 -0.78190558 0 0 Z " fill="#FCE58E" transform="translate(37,6)"/>
<path d="M0 0 C1.91329102 -0.01836914 1.91329102 -0.01836914 3.86523438 -0.03710938 C5.09435547 -0.03904297 6.32347656 -0.04097656 7.58984375 -0.04296875 C8.71124756 -0.04707764 9.83265137 -0.05118652 10.98803711 -0.05541992 C14.07683614 0.18863273 16.27435709 0.87610154 19.0625 2.1875 C18.7325 3.1775 18.4025 4.1675 18.0625 5.1875 C12.68167008 7.37373317 5.8168152 6.37213259 0.125 6.375 C-1.15052734 6.38724609 -2.42605469 6.39949219 -3.74023438 6.41210938 C-5.58391602 6.41500977 -5.58391602 6.41500977 -7.46484375 6.41796875 C-9.14694946 6.42413208 -9.14694946 6.42413208 -10.86303711 6.43041992 C-13.95183614 6.18636727 -16.14935709 5.49889846 -18.9375 4.1875 C-18.6075 3.1975 -18.2775 2.2075 -17.9375 1.1875 C-12.55667008 -0.99873317 -5.6918152 0.00286741 0 0 Z " fill="#000000" transform="translate(31.9375,57.8125)"/>
<path d="M0 0 C2.5 0.625 2.5 0.625 4.875 2.625 C7.18782819 6.89483665 6.63574219 8.93059893 5.5 13.625 C4.25 15.625 4.25 15.625 2.5 16.625 C-0.26411292 17.03961694 -1.81044362 17.01903222 -4.25 15.625 C-6.21440064 12.48195898 -6.73375207 9.26586554 -6.5 5.625 C-4.69649233 2.29544738 -3.70159354 0.92539838 0 0 Z " fill="#9AC804" transform="translate(42.5,27.375)"/>
<path d="M0 0 C0.33 0.66 0.66 1.32 1 2 C1.66 2 2.32 2 3 2 C2.47178451 6.03556631 1.40673398 8.17712748 -1.3125 11.1875 C-1.90675781 11.86167969 -2.50101563 12.53585938 -3.11328125 13.23046875 C-7.01174584 16.88679269 -9.95763723 17.24005136 -15.25 17.125 C-16.32765625 17.10695313 -17.4053125 17.08890625 -18.515625 17.0703125 C-19.33546875 17.04710938 -20.1553125 17.02390625 -21 17 C-20.25390625 15.08203125 -20.25390625 15.08203125 -19 13 C-17.15234375 12.19921875 -17.15234375 12.19921875 -14.9375 11.6875 C-9.39868504 10.06266125 -5.10521858 7.03191111 -1 3 C-0.67 2.01 -0.34 1.02 0 0 Z " fill="#DAC67C" transform="translate(48,38)"/>
<path d="M0 0 C2.9375 0.8125 2.9375 0.8125 4.9375 3.8125 C5.01953125 5.78515625 5.01953125 5.78515625 4.75 7.875 C4.67394531 8.56722656 4.59789062 9.25945313 4.51953125 9.97265625 C3.9375 11.8125 3.9375 11.8125 0.9375 13.8125 C-1.80115044 13.63581287 -3.12030718 12.77187874 -5.375 11.1875 C-7.0625 8.8125 -7.0625 8.8125 -7 5.1875 C-5.78149166 0.80086997 -4.59333168 -0.28122439 0 0 Z " fill="#9ECA09" transform="translate(22.0625,38.1875)"/>
<path d="M0 0 C3.01906912 0.32347169 4.06256576 1.05918383 6.3125 3.1875 C8 6 8 6 7.875 9.25 C7.58625 10.1575 7.2975 11.065 7 12 C4.26094655 13.36952673 2.02912668 13.12621361 -1 13 C-1.66 12.67 -2.32 12.34 -3 12 C-2.88541307 10.56163249 -2.75790884 9.12429034 -2.625 7.6875 C-2.55539062 6.88699219 -2.48578125 6.08648437 -2.4140625 5.26171875 C-2 3 -2 3 0 0 Z " fill="#9FCA0A" transform="translate(15,19)"/>
<path d="M0 0 C0.91007812 0.00902344 1.82015625 0.01804687 2.7578125 0.02734375 C3.80582031 0.04474609 3.80582031 0.04474609 4.875 0.0625 C4.6796875 1.93359375 4.6796875 1.93359375 3.875 4.0625 C1.6953125 5.22265625 1.6953125 5.22265625 -1 6.125 C-4.574034 7.33892117 -6.49743307 8.41260247 -9.125 11.0625 C-12.3125 11.25 -12.3125 11.25 -15.125 11.0625 C-13.68814642 6.03351246 -11.18263331 4.10572498 -7.125 1.0625 C-4.60024538 -0.19987731 -2.81299534 -0.03606404 0 0 Z " fill="#FFEDB3" transform="translate(32.125,5.9375)"/>
<path d="M0 0 C3.50588356 0.56398996 4.98982392 1.66963773 7.25 4.375 C7.77078125 4.98085937 8.2915625 5.58671875 8.828125 6.2109375 C10 8 10 8 10 11 C6.19090609 10.74028905 4.44018699 10.41701925 1.625 7.75 C-0.11305534 4.80867557 -0.38229016 3.3450389 0 0 Z " fill="#A5CD13" transform="translate(38,8)"/>
<path d="M0 0 C0.66 0.33 1.32 0.66 2 1 C-0.475 4.465 -0.475 4.465 -3 8 C-2.34 8.33 -1.68 8.66 -1 9 C-2 10 -2 10 -5.0625 10.0625 C-6.031875 10.041875 -7.00125 10.02125 -8 10 C-6.5682479 4.98886765 -4.01554307 3.05530451 0 0 Z " fill="#FFEDB1" transform="translate(25,7)"/>
<path d="M0 0 C1.2065625 0.0309375 1.2065625 0.0309375 2.4375 0.0625 C2.480221 1.72861905 2.47813832 3.39632885 2.4375 5.0625 C1.4375 6.0625 1.4375 6.0625 -1.125 6.125 C-2.3315625 6.0940625 -2.3315625 6.0940625 -3.5625 6.0625 C-3.605221 4.39638095 -3.60313832 2.72867115 -3.5625 1.0625 C-2.5625 0.0625 -2.5625 0.0625 0 0 Z " fill="#9DCA07" transform="translate(33.5625,23.9375)"/>
<path d="M0 0 C0 0.99 0 1.98 0 3 C-2.88834003 5.10770759 -4.38462395 6 -8 6 C-6.24081631 1.94034532 -4.71412298 0 0 0 Z " fill="#FFFDF8" transform="translate(30,9)"/>
</svg>
